<!-- Generated by IcoMoon.io -->
<svg version="1.1" xmlns="http://www.w3.org/2000/svg" width="34" height="32" viewBox="0 0 34 32">
<title>volume-high</title>
<path fill="#fff" d="M23.179 23.322c-0.219 0-0.439-0.084-0.606-0.251-0.335-0.335-0.335-0.877 0-1.212 1.565-1.565 2.427-3.646 2.427-5.859s-0.862-4.294-2.427-5.859c-0.335-0.335-0.335-0.877 0-1.212s0.877-0.335 1.212 0c1.889 1.889 2.929 4.4 2.929 7.071s-1.040 5.182-2.929 7.071c-0.167 0.167-0.387 0.251-0.606 0.251zM20.134 21.706c-0.219 0-0.439-0.084-0.606-0.251-0.335-0.335-0.335-0.877 0-1.212 2.339-2.339 2.339-6.146 0-8.485-0.335-0.335-0.335-0.877 0-1.212s0.877-0.335 1.212 0c1.457 1.457 2.259 3.394 2.259 5.455s-0.802 3.998-2.259 5.455c-0.167 0.167-0.387 0.251-0.606 0.251v0zM17.090 20.090c-0.219 0-0.439-0.084-0.606-0.251-0.335-0.335-0.335-0.877 0-1.212 1.448-1.448 1.448-3.805 0-5.253-0.335-0.335-0.335-0.877 0-1.212s0.877-0.335 1.212 0c2.117 2.117 2.117 5.561 0 7.677-0.167 0.167-0.387 0.251-0.606 0.251z"></path>
<path fill="#fff" d="M14.714 24c-0.149 0-0.295-0.058-0.404-0.167l-4.404-4.404h-2.049c-0.316 0-0.571-0.256-0.571-0.571v-5.714c0-0.316 0.256-0.571 0.571-0.571h2.049l4.404-4.404c0.163-0.163 0.409-0.212 0.623-0.124s0.353 0.297 0.353 0.528v14.857c0 0.231-0.139 0.439-0.353 0.528-0.071 0.029-0.145 0.044-0.219 0.044z"></path>
</svg>
