<!-- Generated by IcoMoon.io -->
<svg version="1.1" xmlns="http://www.w3.org/2000/svg" width="32" height="32" viewBox="0 0 32 32">
<title>volume-mute2</title>
<path fill="#fff" d="M25 18.153v1.705h-1.705l-2.153-2.153-2.153 2.153h-1.705v-1.705l2.153-2.153-2.153-2.153v-1.705h1.705l2.153 2.153 2.153-2.153h1.705v1.705l-2.153 2.153 2.153 2.153z"></path>
<path fill="#fff" d="M14.072 25c-0.167 0-0.332-0.065-0.455-0.188l-4.955-4.955h-2.305c-0.355 0-0.643-0.288-0.643-0.643v-6.429c0-0.355 0.288-0.643 0.643-0.643h2.305l4.955-4.955c0.184-0.184 0.46-0.239 0.701-0.139s0.397 0.334 0.397 0.594v16.714c0 0.26-0.157 0.494-0.397 0.594-0.079 0.033-0.163 0.049-0.246 0.049z"></path>
</svg>
